# xmcd CD database file
#
# Track frame offsets:
#	182
#	23885
#	40800
#	73387
#	100625
#	132175
#	184372
#	200995
#	238370
#	272307
#	302415
#
# Disc length: 4385 seconds
#
# Revision: 3
# Processed by: cddbd v1.5.2PL0 Copyright (c) Steve Scherf et al.
# Submitted via: CDex 1.81
#
DISCID=9f111f0b
DTITLE=Bon Jovi - Always Live In USA
DYEAR=1900
DGENRE=Blues
TTITLE0=Living On A Prayer
TTITLE1=Yuo Give Love a Bad Name
TTITLE2=Keep The Faith
TTITLE3=Blood On Blood
TTITLE4=Always
TTITLE5=Dry Country
TTITLE6=Rockin All Over The World
TTITLE7=Someday It'll Be Saturday Night
TTITLE8=With A Little Help From My Friends
TTITLE9=This Ain't A Love Song
TTITLE10=Hey God
EXTD=
EXTT0=
EXTT1=
EXTT2=
EXTT3=
EXTT4=
EXTT5=
EXTT6=
EXTT7=
EXTT8=
EXTT9=
EXTT10=
PLAYORDER=
